<svg width="34" height="30" viewBox="0 0 34 30" fill="none" xmlns="http://www.w3.org/2000/svg">
<path d="M33.194 1.17811C33.085 1.0112 32.9353 0.873934 32.7586 0.778901C32.5819 0.683868 32.3838 0.634109 32.1826 0.634186H20.1595C19.9287 0.634275 19.7029 0.699862 19.5089 0.823118C19.3149 0.946373 19.1609 1.12209 19.0654 1.32928L17.7459 4.19117H1.52384C1.29095 4.19119 1.06308 4.25792 0.867919 4.38323C0.672756 4.50855 0.518699 4.68707 0.424469 4.89709C0.330238 5.10712 0.29989 5.33962 0.337111 5.56633C0.374332 5.79304 0.47752 6.00422 0.634138 6.17419L5.91074 11.898L0.634138 17.6218C0.47752 17.7917 0.374332 18.0029 0.337111 18.2296C0.29989 18.4563 0.330238 18.6888 0.424469 18.8988C0.518699 19.1089 0.672756 19.2874 0.867919 19.4127C1.06308 19.538 1.29095 19.6048 1.52384 19.6048H12.5084C12.7392 19.6047 12.965 19.5391 13.159 19.4158C13.3531 19.2926 13.507 19.1169 13.6025 18.9097L14.922 16.0478H24.3045L19.0654 27.4138C18.9951 27.5562 18.9544 27.711 18.9457 27.8692C18.937 28.0273 18.9606 28.1855 19.0149 28.3345C19.0693 28.4836 19.1534 28.6203 19.2622 28.7368C19.3711 28.8532 19.5024 28.947 19.6486 29.0125C19.7948 29.0781 19.9528 29.1141 20.1134 29.1184C20.2739 29.1227 20.4337 29.0953 20.5833 29.0378C20.7329 28.9802 20.8693 28.8937 20.9844 28.7833C21.0995 28.6729 21.1911 28.5408 21.2536 28.395L33.2766 2.31042C33.36 2.12992 33.3961 1.93169 33.3817 1.73387C33.3672 1.53605 33.3027 1.34497 33.194 1.17811ZM11.7344 17.2335H4.24104L8.42506 12.6953C8.62613 12.4771 8.73754 12.1928 8.73754 11.898C8.73754 11.6031 8.62613 11.3188 8.42506 11.1006L4.24104 6.56249H16.6533L11.7344 17.2335ZM25.3971 13.6765H16.0146L20.9335 3.00551H30.316L25.3971 13.6765Z" fill="#E6E6E6"/>
</svg>
