<svg width="39" height="27" viewBox="0 0 39 27" fill="none" xmlns="http://www.w3.org/2000/svg">
<path d="M36.5625 27C36.5625 27 39 27 39 24.75C39 22.5 36.5625 15.75 26.8125 15.75C17.0625 15.75 14.625 22.5 14.625 24.75C14.625 27 17.0625 27 17.0625 27H36.5625ZM17.1161 24.75L17.0625 24.741C17.0649 24.147 17.4696 22.4235 18.915 20.871C20.2605 19.4153 22.6249 18 26.8125 18C30.9977 18 33.3621 19.4175 34.71 20.871C36.1554 22.4235 36.5576 24.1493 36.5625 24.741L36.543 24.7455L36.5089 24.75H17.1161ZM26.8125 11.25C28.1054 11.25 29.3454 10.7759 30.2596 9.93198C31.1739 9.08807 31.6875 7.94347 31.6875 6.75C31.6875 5.55653 31.1739 4.41193 30.2596 3.56802C29.3454 2.72411 28.1054 2.25 26.8125 2.25C25.5196 2.25 24.2796 2.72411 23.3654 3.56802C22.4511 4.41193 21.9375 5.55653 21.9375 6.75C21.9375 7.94347 22.4511 9.08807 23.3654 9.93198C24.2796 10.7759 25.5196 11.25 26.8125 11.25ZM34.125 6.75C34.125 7.63642 33.9359 8.51417 33.5684 9.33311C33.2009 10.1521 32.6622 10.8962 31.9832 11.523C31.3042 12.1498 30.4981 12.647 29.6109 12.9862C28.7237 13.3254 27.7728 13.5 26.8125 13.5C25.8522 13.5 24.9013 13.3254 24.0141 12.9862C23.1269 12.647 22.3208 12.1498 21.6418 11.523C20.9628 10.8962 20.4241 10.1521 20.0566 9.33311C19.6891 8.51417 19.5 7.63642 19.5 6.75C19.5 4.95979 20.2704 3.2429 21.6418 1.97703C23.0131 0.711159 24.8731 0 26.8125 0C28.7519 0 30.6119 0.711159 31.9832 1.97703C33.3546 3.2429 34.125 4.95979 34.125 6.75ZM16.9065 16.38C15.9309 16.0985 14.926 15.9123 13.9084 15.8243C13.3365 15.7728 12.7621 15.748 12.1875 15.75C2.4375 15.75 0 22.5 0 24.75C0 26.25 0.8125 27 2.4375 27H12.714C12.3528 26.2975 12.1726 25.5274 12.1875 24.75C12.1875 22.4775 13.1064 20.1555 14.8444 18.216C15.4367 17.5545 16.1265 16.9357 16.9065 16.38ZM11.9925 18C10.5508 20.0013 9.77156 22.3467 9.75 24.75H2.4375C2.4375 24.165 2.83725 22.4325 4.29 20.871C5.61844 19.44 7.92675 18.045 11.9925 18.0023V18ZM3.65625 7.875C3.65625 6.08479 4.42667 4.3679 5.79803 3.10203C7.16939 1.83616 9.02935 1.125 10.9688 1.125C12.9081 1.125 14.7681 1.83616 16.1395 3.10203C17.5108 4.3679 18.2812 6.08479 18.2812 7.875C18.2812 9.66521 17.5108 11.3821 16.1395 12.648C14.7681 13.9138 12.9081 14.625 10.9688 14.625C9.02935 14.625 7.16939 13.9138 5.79803 12.648C4.42667 11.3821 3.65625 9.66521 3.65625 7.875ZM10.9688 3.375C9.67582 3.375 8.43584 3.84911 7.5216 4.69302C6.60736 5.53693 6.09375 6.68153 6.09375 7.875C6.09375 9.06847 6.60736 10.2131 7.5216 11.057C8.43584 11.9009 9.67582 12.375 10.9688 12.375C12.2617 12.375 13.5017 11.9009 14.4159 11.057C15.3301 10.2131 15.8438 9.06847 15.8438 7.875C15.8438 6.68153 15.3301 5.53693 14.4159 4.69302C13.5017 3.84911 12.2617 3.375 10.9688 3.375Z" fill="#E6E6E6"/>
</svg>
