<svg width="29" height="29" viewBox="0 0 29 29" fill="none" xmlns="http://www.w3.org/2000/svg">
<path d="M14.25 1.58333L10.9408 4.8925L14.25 8.20167M2.01083 0L0 2.01083L7.48917 9.5H0V19H6.33333L14.25 26.9167V16.2608L20.9792 23.0058C19.9183 23.8133 18.7308 24.4783 17.4167 24.8583V28.1358C19.6017 27.6292 21.5808 26.6317 23.2433 25.27L26.4892 28.5L28.5 26.4892L14.25 12.2392M25.3333 14.25C25.3333 15.7383 25.0167 17.1317 24.4783 18.43L26.8692 20.8208C27.9387 18.7956 28.4984 16.5403 28.5 14.25C28.5 7.47333 23.75 1.805 17.4167 0.364167V3.62583C21.9925 4.9875 25.3333 9.23083 25.3333 14.25ZM21.375 14.25C21.375 11.4475 19.7917 9.04083 17.4167 7.86917V11.3683L21.2958 15.2475C21.375 14.9308 21.375 14.5825 21.375 14.25Z" fill="#E6E6E6"/>
</svg>
