<svg width="23" height="27" viewBox="0 0 23 27" fill="none" xmlns="http://www.w3.org/2000/svg">
<path d="M0 3.375C1.70937e-05 2.78258 0.177149 2.2006 0.513594 1.68755C0.850038 1.1745 1.33394 0.748461 1.91667 0.45225V23.625C1.91667 24.0726 2.1186 24.5018 2.47805 24.8182C2.83749 25.1347 3.325 25.3125 3.83333 25.3125H19.1667C19.675 25.3125 20.1625 25.1347 20.522 24.8182C20.8814 24.5018 21.0833 24.0726 21.0833 23.625V3.375C21.0833 2.92745 20.8814 2.49822 20.522 2.18176C20.1625 1.86529 19.675 1.6875 19.1667 1.6875H15.3333V0H19.1667C20.1833 0 21.1584 0.355579 21.8772 0.988514C22.5961 1.62145 23 2.47989 23 3.375V23.625C23 24.5201 22.5961 25.3785 21.8772 26.0115C21.1584 26.6444 20.1833 27 19.1667 27H3.83333C2.81667 27 1.84165 26.6444 1.12276 26.0115C0.403868 25.3785 0 24.5201 0 23.625V3.375ZM3.83333 0V10.9688C3.83333 11.1254 3.88289 11.279 3.97646 11.4123C4.07003 11.5456 4.2039 11.6533 4.36309 11.7234C4.52227 11.7935 4.70048 11.8232 4.87773 11.8091C5.05499 11.795 5.22429 11.7378 5.36667 11.6437L8.625 9.49219L11.8833 11.6437C12.0257 11.7378 12.195 11.795 12.3723 11.8091C12.5495 11.8232 12.7277 11.7935 12.8869 11.7234C13.0461 11.6533 13.18 11.5456 13.2735 11.4123C13.3671 11.279 13.4167 11.1254 13.4167 10.9688V0H3.83333ZM5.75 9.28125V1.6875H11.5V9.28125L9.2 7.7625C9.03412 7.65296 8.83235 7.59375 8.625 7.59375C8.41765 7.59375 8.21588 7.65296 8.05 7.7625L5.75 9.28125Z" fill="#E6E6E6"/>
</svg>
