<svg width="28" height="28" viewBox="0 0 28 28" fill="none" xmlns="http://www.w3.org/2000/svg">
<path d="M15.1403 18.2032L14 15.3559L12.8598 18.2032L9.93248 18.4635L12.1561 20.4824L11.4863 23.491L14 21.8924L16.5138 23.491L15.844 20.4824L18.0676 18.4635L15.1403 18.2032ZM5.86491 0.441444H22.1352V3.15316H5.86491V0.441444ZM3.1532 5.86487H24.8469V8.57658H3.1532V5.86487Z" fill="#E6E6E6"/>
<path d="M24.8468 14V24.8468H3.15312V14H24.8468ZM24.8468 11.2883H3.15312C2.43393 11.2883 1.74419 11.574 1.23565 12.0825C0.727104 12.5911 0.441406 13.2808 0.441406 14V24.8468C0.441406 25.566 0.727104 26.2558 1.23565 26.7643C1.74419 27.2729 2.43393 27.5586 3.15312 27.5586H24.8468C25.566 27.5586 26.2557 27.2729 26.7643 26.7643C27.2728 26.2558 27.5585 25.566 27.5585 24.8468V14C27.5585 13.2808 27.2728 12.5911 26.7643 12.0825C26.2557 11.574 25.566 11.2883 24.8468 11.2883Z" fill="#E6E6E6"/>
</svg>
