<svg width="29" height="29" viewBox="0 0 29 29" fill="none" xmlns="http://www.w3.org/2000/svg">
<g clip-path="url(#clip0_592_291)">
<path d="M17.8125 0V9.62053C18.6261 10.089 19.3018 10.7635 19.7717 11.5763C20.2416 12.389 20.489 13.3112 20.489 14.25C20.489 15.1888 20.2416 16.111 19.7717 16.9237C19.3018 17.7365 18.6261 18.411 17.8125 18.8795V28.5L8.31309 21.375H0V7.125H8.31309L17.8125 0ZM14.25 7.125L9.49941 10.6875H3.5625V17.8125H9.49941L14.25 21.375V7.125Z" fill="#E6E6E6"/>
<path d="M24.2251 5.69998L22.8019 4.63123L20.6626 7.47944L22.0876 8.54819C22.628 8.95437 23.1078 9.43538 23.5126 9.97676C24.4086 11.1666 24.9376 12.6433 24.9376 14.25C24.9376 15.8567 24.4086 17.3315 23.5126 18.525C23.1075 19.0651 22.6277 19.5449 22.0876 19.95L20.6626 21.0205L22.8019 23.8705L24.2269 22.8C25.0358 22.1921 25.7543 21.4724 26.3608 20.6625C27.7512 18.8139 28.5022 16.5631 28.5001 14.25C28.5001 11.8453 27.7039 9.62229 26.3626 7.83748C25.755 7.0273 25.0353 6.30761 24.2251 5.69998Z" fill="#E6E6E6"/>
</g>
<defs>
<clipPath id="clip0_592_291">
<rect width="28.5" height="28.5" fill="white"/>
</clipPath>
</defs>
</svg>
